<?xml version="1.0"?>
<svg xmlns="http://www.w3.org/2000/svg" viewBox="0 0 512 512" width="512" height="512"><g id="solid">
<path fill="#525252" d="M67.1,400.292l-5.449,16.773H44.008a12,12,0,0,0-7.054,21.708l14.269,10.368-5.451,16.774A11.995,11.995,0,0,0,64.238,479.33l14.27-10.366L92.775,479.33a12,12,0,0,0,18.467-13.416l-5.45-16.773,14.269-10.367a12,12,0,0,0-7.053-21.709H95.37l-5.45-16.774a12,12,0,0,0-22.825,0Z"/>
<path fill="#525252" d="M387.58,425.357a11.971,11.971,0,0,0,4.359,13.416l14.269,10.368-5.45,16.774a11.995,11.995,0,0,0,18.466,13.415l14.269-10.366,14.268,10.366a12,12,0,0,0,18.467-13.416l-5.451-16.773,14.269-10.367a12,12,0,0,0-7.054-21.709H450.354l-5.449-16.773h0a12,12,0,0,0-22.825,0l-5.45,16.774H398.992A11.968,11.968,0,0,0,387.58,425.357Z"/>
<path fill="#525252" d="M124.42,86.643a11.971,11.971,0,0,0-4.359-13.416L105.792,62.859l5.45-16.774A12,12,0,0,0,92.776,32.67L78.507,43.036,64.239,32.67A12,12,0,0,0,45.772,46.086l5.451,16.773L36.954,73.226a12,12,0,0,0,7.054,21.709H61.646L67.1,111.709a12,12,0,0,0,22.825,0l5.45-16.774h17.638A11.968,11.968,0,0,0,124.42,86.643Z"/>
<path fill="#525252" d="M444.905,111.709h0l5.449-16.773h17.638a12,12,0,0,0,7.054-21.708L460.777,62.859l5.451-16.774A12,12,0,0,0,447.762,32.67l-14.27,10.366L419.225,32.67a12,12,0,0,0-18.467,13.416l5.45,16.773L391.939,73.226a12,12,0,0,0,7.053,21.709H416.63l5.45,16.774a12,12,0,0,0,22.825,0Z"/>
<path fill="#525252" d="M97.791,343.18a24.167,24.167,0,0,0,6.25.828,24.07,24.07,0,1,0-6.25-.828Z"/>
<path fill="#525252" d="M180,83.213a24,24,0,0,0,5.788,43.967,24.167,24.167,0,0,0,6.25.828A24,24,0,1,0,180,83.213Z"/>
<path fill="#525252" d="M80.083,187.56a24,24,0,0,0,16.971,29.393,24.129,24.129,0,0,0,6.25.828A24,24,0,1,0,80.083,187.56Z"/>
<path fill="#525252" d="M187.56,431.917a24.131,24.131,0,0,0,6.251.828,24.035,24.035,0,1,0-6.251-.828Z"/>
<path fill="#525252" d="M320.038,432A24,24,0,1,0,299.213,420,23.846,23.846,0,0,0,320.038,432Z"/>
<path fill="#525252" d="M431.917,324.44a23.99,23.99,0,1,0-23.188,17.791A23.844,23.844,0,0,0,431.917,324.44Z"/>
<path fill="#525252" d="M414.214,168.82A24,24,0,1,0,428.787,180,23.847,23.847,0,0,0,414.214,168.82Z"/>
<path fill="#525252" d="M306.229,82.48a24,24,0,0,0,5.789,43.967,24.129,24.129,0,0,0,6.25.828A24,24,0,1,0,306.229,82.48Z"/>
<path fill="#525252" d="M370.282,218.539A8,8,0,1,0,364.3,203.7l-50.917,20.534c-.137,0-.271-.015-.408-.015H299.1L397.417,125.9A8,8,0,0,0,386.1,114.583L279.493,221.192,310.322,148.7a8,8,0,1,0-14.724-6.262l-23.7,55.735-1.616-4.972A14.9,14.9,0,0,0,264,185.079V40a8,8,0,0,0-16,0V185.079a14.9,14.9,0,0,0-6.279,8.123l-1.08,3.323-22.1-54.807A8,8,0,1,0,203.7,147.7l29.243,72.513-.347,1.067-106.7-106.7A8,8,0,0,0,114.583,125.9l98.322,98.323H201.711L148.7,201.678a8,8,0,1,0-6.262,14.724l42.373,18.019c-.02.059-.045.114-.064.174A14.77,14.77,0,0,0,186.8,248H62.623a24.046,24.046,0,1,0-.013,16H207.571l2.572,1.869L141.718,293.46A8,8,0,1,0,147.7,308.3l65.157-26.274-2.791,8.591L114.583,386.1A8,8,0,0,0,125.9,397.417l82.575-82.575a15.4,15.4,0,0,0,3.493,3.514,15.044,15.044,0,0,0,7.6,2.867L201.678,363.3a8,8,0,1,0,14.724,6.262l25.6-60.2L248,305V472a8,8,0,0,0,16,0V305l4.431,3.219,25.03,62.065A8,8,0,1,0,308.3,364.3l-17.353-43.03a14.937,14.937,0,0,0,9.088-2.912,15.4,15.4,0,0,0,3.493-3.514L386.1,397.417A8,8,0,0,0,397.417,386.1l-95.485-95.486-2.41-7.416L363.3,310.322a8,8,0,0,0,6.262-14.724L301.043,266.46l3.386-2.46H449.375a24.22,24.22,0,0,0,1.844,4h0a24.044,24.044,0,1,0-1.824-20H325.2"/></g></svg>
